<mxfile host="app.diagrams.net" modified="2023-11-18T05:43:02.013Z" agent="Mozilla/5.0 (Windows NT 10.0; Win64; x64) AppleWebKit/537.36 (KHTML, like Gecko) Chrome/119.0.0.0 Safari/537.36" etag="9p79Vo24zObpnU1BpE6V" version="22.1.3" type="device">
  <diagram name="Page-1" id="jvXpW6k17Gj8lsHadBp3">
    <mxGraphModel dx="819" dy="424" grid="1" gridSize="10" guides="1" tooltips="1" connect="1" arrows="1" fold="1" page="1" pageScale="1" pageWidth="850" pageHeight="1100" math="0" shadow="0">
      <root>
        <mxCell id="0" />
        <mxCell id="1" parent="0" />
        <mxCell id="1jfbzJ_kUJNFtccPclfw-7" value="Клиент" style="verticalAlign=top;align=left;spacingTop=8;spacingLeft=2;spacingRight=12;shape=cube;size=10;direction=south;fontStyle=4;html=1;whiteSpace=wrap;" parent="1" vertex="1">
          <mxGeometry x="230" y="340" width="180" height="120" as="geometry" />
        </mxCell>
        <mxCell id="1jfbzJ_kUJNFtccPclfw-9" value="&lt;div align=&quot;justify&quot;&gt;Browser&lt;/div&gt;" style="verticalAlign=top;align=center;spacingTop=8;spacingLeft=2;spacingRight=12;shape=cube;size=10;direction=south;fontStyle=4;html=1;whiteSpace=wrap;" parent="1" vertex="1">
          <mxGeometry x="240" y="390" width="150" height="50" as="geometry" />
        </mxCell>
        <mxCell id="1jfbzJ_kUJNFtccPclfw-10" value="Сервер" style="verticalAlign=top;align=center;spacingTop=8;spacingLeft=2;spacingRight=12;shape=cube;size=10;direction=south;fontStyle=4;html=1;whiteSpace=wrap;" parent="1" vertex="1">
          <mxGeometry x="540" y="240" width="290" height="450" as="geometry" />
        </mxCell>
        <mxCell id="1jfbzJ_kUJNFtccPclfw-12" value="&lt;div align=&quot;center&quot;&gt;Docker&lt;/div&gt;" style="verticalAlign=top;align=center;spacingTop=8;spacingLeft=2;spacingRight=12;shape=cube;size=10;direction=south;fontStyle=4;html=1;whiteSpace=wrap;" parent="1" vertex="1">
          <mxGeometry x="550" y="280" width="260" height="390" as="geometry" />
        </mxCell>
        <mxCell id="1jfbzJ_kUJNFtccPclfw-11" value="&lt;div&gt;Back-end&lt;/div&gt;&lt;div&gt;Flask&lt;br&gt;&lt;/div&gt;" style="shape=module;align=left;spacingLeft=20;align=center;verticalAlign=top;whiteSpace=wrap;html=1;" parent="1" vertex="1">
          <mxGeometry x="670" y="525" width="100" height="50" as="geometry" />
        </mxCell>
        <mxCell id="1jfbzJ_kUJNFtccPclfw-13" value="PostgreSQL" style="shape=cylinder3;whiteSpace=wrap;html=1;boundedLbl=1;backgroundOutline=1;size=15;" parent="1" vertex="1">
          <mxGeometry x="690" y="595" width="85" height="60" as="geometry" />
        </mxCell>
        <mxCell id="1jfbzJ_kUJNFtccPclfw-14" value="&amp;lt;&amp;lt;Service&amp;gt;&amp;gt;&lt;br&gt;Parser Controller" style="shape=module;align=left;spacingLeft=20;align=center;verticalAlign=top;whiteSpace=wrap;html=1;" parent="1" vertex="1">
          <mxGeometry x="570" y="600" width="100" height="50" as="geometry" />
        </mxCell>
        <mxCell id="1jfbzJ_kUJNFtccPclfw-15" value="&lt;pre&gt;HTTP&lt;/pre&gt;" style="shape=providedRequiredInterface;html=1;verticalLabelPosition=bottom;sketch=0;" parent="1" vertex="1">
          <mxGeometry x="580" y="555" width="20" height="20" as="geometry" />
        </mxCell>
        <mxCell id="1jfbzJ_kUJNFtccPclfw-19" style="edgeStyle=orthogonalEdgeStyle;rounded=0;orthogonalLoop=1;jettySize=auto;html=1;entryX=1;entryY=0.5;entryDx=0;entryDy=0;entryPerimeter=0;exitX=1;exitY=0.75;exitDx=0;exitDy=0;dashed=1;endArrow=open;endFill=0;" parent="1" source="1jfbzJ_kUJNFtccPclfw-11" target="1jfbzJ_kUJNFtccPclfw-13" edge="1">
          <mxGeometry relative="1" as="geometry">
            <Array as="points">
              <mxPoint x="770" y="560" />
              <mxPoint x="790" y="560" />
              <mxPoint x="790" y="625" />
            </Array>
          </mxGeometry>
        </mxCell>
        <mxCell id="1jfbzJ_kUJNFtccPclfw-23" value="AI&lt;br&gt;(ChatGPT)" style="ellipse;shape=cloud;whiteSpace=wrap;html=1;" parent="1" vertex="1">
          <mxGeometry x="920" y="240" width="120" height="80" as="geometry" />
        </mxCell>
        <mxCell id="1jfbzJ_kUJNFtccPclfw-26" style="edgeStyle=orthogonalEdgeStyle;rounded=0;orthogonalLoop=1;jettySize=auto;html=1;entryX=1;entryY=0.25;entryDx=0;entryDy=0;endArrow=none;endFill=0;" parent="1" source="1jfbzJ_kUJNFtccPclfw-24" target="1jfbzJ_kUJNFtccPclfw-11" edge="1">
          <mxGeometry relative="1" as="geometry">
            <Array as="points">
              <mxPoint x="860" y="380" />
              <mxPoint x="860" y="538" />
              <mxPoint x="770" y="538" />
            </Array>
          </mxGeometry>
        </mxCell>
        <mxCell id="1jfbzJ_kUJNFtccPclfw-24" value="HTTP" style="shape=providedRequiredInterface;html=1;verticalLabelPosition=bottom;sketch=0;" parent="1" vertex="1">
          <mxGeometry x="900" y="370" width="20" height="20" as="geometry" />
        </mxCell>
        <mxCell id="1jfbzJ_kUJNFtccPclfw-25" style="edgeStyle=orthogonalEdgeStyle;rounded=0;orthogonalLoop=1;jettySize=auto;html=1;entryX=1;entryY=0.5;entryDx=0;entryDy=0;entryPerimeter=0;endArrow=none;endFill=0;" parent="1" source="1jfbzJ_kUJNFtccPclfw-23" target="1jfbzJ_kUJNFtccPclfw-24" edge="1">
          <mxGeometry relative="1" as="geometry" />
        </mxCell>
        <mxCell id="n6xtex88noyS8Qz01kfy-9" style="edgeStyle=orthogonalEdgeStyle;rounded=0;orthogonalLoop=1;jettySize=auto;html=1;exitX=0;exitY=0;exitDx=0;exitDy=15;exitPerimeter=0;entryX=0.5;entryY=1;entryDx=0;entryDy=0;endArrow=none;endFill=0;" edge="1" parent="1" source="1jfbzJ_kUJNFtccPclfw-31" target="n6xtex88noyS8Qz01kfy-8">
          <mxGeometry relative="1" as="geometry">
            <Array as="points">
              <mxPoint x="666" y="475" />
              <mxPoint x="666" y="415" />
              <mxPoint x="732" y="415" />
            </Array>
          </mxGeometry>
        </mxCell>
        <mxCell id="n6xtex88noyS8Qz01kfy-18" style="edgeStyle=orthogonalEdgeStyle;rounded=0;orthogonalLoop=1;jettySize=auto;html=1;endArrow=none;endFill=0;exitX=0;exitY=0;exitDx=0;exitDy=15;exitPerimeter=0;" edge="1" parent="1" source="1jfbzJ_kUJNFtccPclfw-31" target="n6xtex88noyS8Qz01kfy-12">
          <mxGeometry relative="1" as="geometry" />
        </mxCell>
        <mxCell id="1jfbzJ_kUJNFtccPclfw-31" value="&lt;div&gt;Front-end&lt;/div&gt;&lt;div&gt;Vue.js&lt;/div&gt;" style="shape=module;align=left;spacingLeft=20;align=center;verticalAlign=top;whiteSpace=wrap;html=1;" parent="1" vertex="1">
          <mxGeometry x="675" y="460" width="100" height="50" as="geometry" />
        </mxCell>
        <mxCell id="1jfbzJ_kUJNFtccPclfw-32" value="HTTP" style="shape=providedRequiredInterface;html=1;verticalLabelPosition=bottom;sketch=0;" parent="1" vertex="1">
          <mxGeometry x="610" y="525" width="20" height="20" as="geometry" />
        </mxCell>
        <mxCell id="1jfbzJ_kUJNFtccPclfw-35" value="&lt;font style=&quot;font-size: 12px;&quot;&gt;HTTP&lt;/font&gt;" style="edgeStyle=orthogonalEdgeStyle;rounded=0;orthogonalLoop=1;jettySize=auto;html=1;exitX=0;exitY=0;exitDx=20;exitDy=0;exitPerimeter=0;entryX=0;entryY=0;entryDx=0;entryDy=35;entryPerimeter=0;dashed=1;" parent="1" source="1jfbzJ_kUJNFtccPclfw-9" target="n6xtex88noyS8Qz01kfy-12" edge="1">
          <mxGeometry relative="1" as="geometry" />
        </mxCell>
        <mxCell id="n6xtex88noyS8Qz01kfy-1" style="edgeStyle=orthogonalEdgeStyle;rounded=0;orthogonalLoop=1;jettySize=auto;html=1;entryX=0;entryY=0;entryDx=0;entryDy=35;entryPerimeter=0;endArrow=none;endFill=0;" edge="1" parent="1" source="1jfbzJ_kUJNFtccPclfw-15" target="1jfbzJ_kUJNFtccPclfw-11">
          <mxGeometry relative="1" as="geometry" />
        </mxCell>
        <mxCell id="n6xtex88noyS8Qz01kfy-2" style="edgeStyle=orthogonalEdgeStyle;rounded=0;orthogonalLoop=1;jettySize=auto;html=1;entryX=0;entryY=0;entryDx=0;entryDy=15;entryPerimeter=0;exitX=0;exitY=0.5;exitDx=0;exitDy=0;exitPerimeter=0;endArrow=none;endFill=0;" edge="1" parent="1" source="1jfbzJ_kUJNFtccPclfw-15" target="1jfbzJ_kUJNFtccPclfw-14">
          <mxGeometry relative="1" as="geometry">
            <Array as="points">
              <mxPoint x="560" y="565" />
              <mxPoint x="560" y="615" />
            </Array>
          </mxGeometry>
        </mxCell>
        <mxCell id="n6xtex88noyS8Qz01kfy-5" style="edgeStyle=orthogonalEdgeStyle;rounded=0;orthogonalLoop=1;jettySize=auto;html=1;entryX=0;entryY=0;entryDx=0;entryDy=15;entryPerimeter=0;endArrow=none;endFill=0;" edge="1" parent="1" source="1jfbzJ_kUJNFtccPclfw-32" target="1jfbzJ_kUJNFtccPclfw-11">
          <mxGeometry relative="1" as="geometry" />
        </mxCell>
        <mxCell id="n6xtex88noyS8Qz01kfy-7" value="&lt;font style=&quot;font-size: 8px;&quot;&gt;&lt;b&gt;&amp;lt;&amp;lt;Vue.js модуль&amp;gt;&amp;gt;&lt;br&gt;Процесс&lt;/b&gt;&lt;br&gt;&lt;/font&gt;" style="shape=module;align=left;spacingLeft=20;align=center;verticalAlign=top;whiteSpace=wrap;html=1;" vertex="1" parent="1">
          <mxGeometry x="682.5" y="380" width="100" height="50" as="geometry" />
        </mxCell>
        <mxCell id="n6xtex88noyS8Qz01kfy-8" value="&lt;font style=&quot;font-size: 8px;&quot;&gt;&lt;b&gt;&amp;lt;&amp;lt;Vue.js модуль&amp;gt;&amp;gt;&lt;br&gt;Управление новостями&lt;/b&gt;&lt;br&gt;&lt;/font&gt;" style="shape=module;align=left;spacingLeft=20;align=center;verticalAlign=top;whiteSpace=wrap;html=1;" vertex="1" parent="1">
          <mxGeometry x="682.5" y="320" width="100" height="50" as="geometry" />
        </mxCell>
        <mxCell id="n6xtex88noyS8Qz01kfy-12" value="&lt;font style=&quot;&quot;&gt;Nginx&lt;br&gt;&lt;/font&gt;" style="shape=module;align=left;spacingLeft=20;align=center;verticalAlign=top;whiteSpace=wrap;html=1;" vertex="1" parent="1">
          <mxGeometry x="560" y="375" width="100" height="50" as="geometry" />
        </mxCell>
        <mxCell id="n6xtex88noyS8Qz01kfy-16" style="edgeStyle=orthogonalEdgeStyle;rounded=0;orthogonalLoop=1;jettySize=auto;html=1;entryX=0;entryY=0.5;entryDx=0;entryDy=0;entryPerimeter=0;endArrow=none;endFill=0;exitX=0;exitY=0;exitDx=0;exitDy=35;exitPerimeter=0;" edge="1" parent="1" source="1jfbzJ_kUJNFtccPclfw-31" target="1jfbzJ_kUJNFtccPclfw-32">
          <mxGeometry relative="1" as="geometry" />
        </mxCell>
        <mxCell id="n6xtex88noyS8Qz01kfy-17" style="edgeStyle=orthogonalEdgeStyle;rounded=0;orthogonalLoop=1;jettySize=auto;html=1;entryX=0;entryY=0;entryDx=0;entryDy=15;entryPerimeter=0;exitX=0;exitY=0;exitDx=0;exitDy=15;exitPerimeter=0;endArrow=none;endFill=0;" edge="1" parent="1" source="1jfbzJ_kUJNFtccPclfw-31" target="n6xtex88noyS8Qz01kfy-8">
          <mxGeometry relative="1" as="geometry">
            <Array as="points">
              <mxPoint x="666" y="475" />
              <mxPoint x="666" y="335" />
            </Array>
          </mxGeometry>
        </mxCell>
      </root>
    </mxGraphModel>
  </diagram>
</mxfile>
